<?xml version="1.0" encoding="UTF-8" standalone="no"?>
<svg width="30px" height="50px" viewBox="0 0 30 50" version="1.1" xmlns="http://www.w3.org/2000/svg" xmlns:xlink="http://www.w3.org/1999/xlink" xmlns:sketch="http://www.bohemiancoding.com/sketch/ns">
    <title>Slice 1</title>
    <description>Created with Sketch (http://www.bohemiancoding.com/sketch)</description>
    <defs></defs>
    <g id="Page-1" stroke="none" stroke-width="1" fill="none" fill-rule="evenodd" sketch:type="MSPage">
        <path d="M18,23.4878829 C21.4955772,22.2523738 24,18.9186567 24,15 C24,10.029437 19.970563,6 15,6 C10.029437,6 6,10.029437 6,15 C6,18.9186567 8.50442277,22.2523738 12,23.4878829 L12,29.0005775 C12,30.6571128 13.3465171,32 15,32 C16.6568542,32 18,30.6556493 18,29.0005775 L18,23.4878829 Z M24,27.0010988 C27.6433402,24.2644799 30,19.9074538 30,15 C30,6.71572834 23.2842717,0 15,0 C6.71572834,0 0,6.71572834 0,15 C0,19.9074538 2.35665983,24.2644799 6,27.0010988 L6,33.9966488 C6,35.6553538 7.35292554,37 8.99253976,37 L21.0074602,37 C22.6601943,37 24,35.6576211 24,33.9966488 L24,27.0010988 L24,27.0010988 Z M13.498576,47 C12.6709353,47 12,47.6657972 12,48.5 C12,49.3284271 12.6650298,50 13.498576,50 L16.501424,50 C17.3290647,50 18,49.3342028 18,48.5 C18,47.6715729 17.3349702,47 16.501424,47 L13.498576,47 Z M11.0085302,40 C9.8992496,40 9,40.8877296 9,42 C9,43.1045695 9.90195036,44 11.0085302,44 L18.9914698,44 C20.1007504,44 21,43.1122704 21,42 C21,40.8954305 20.0980496,40 18.9914698,40 L11.0085302,40 Z" id="Rectangle-4" fill="#FFFFFF" sketch:type="MSShapeGroup"></path>
    </g>
</svg>