<?xml version="1.0" encoding="UTF-8" standalone="no"?>
<svg width="40px" height="40px" viewBox="0 0 155 155" version="1.1" xmlns="http://www.w3.org/2000/svg" xmlns:xlink="http://www.w3.org/1999/xlink" xmlns:sketch="http://www.bohemiancoding.com/sketch/ns">
    <title>logo</title>
    <description>Created with Sketch (http://www.bohemiancoding.com/sketch)</description>
    <defs>
        <linearGradient x1="50%" y1="0%" x2="50%" y2="100%" id="linearGradient-1">
            <stop stop-color="#31EAEB" offset="0%"></stop>
            <stop stop-color="#29C7C8" offset="63.8341422%"></stop>
            <stop stop-color="#1E8B8B" offset="100%"></stop>
        </linearGradient>
    </defs>
    <g id="Page-1" stroke="none" stroke-width="1" fill="none" fill-rule="evenodd" sketch:type="MSPage">
        <g id="Group" sketch:type="MSLayerGroup">
            <path d="M53.3121937,0 L101.687806,0 C117.038812,0 124.714311,0 132.976658,2.61253482 C141.997764,5.89595097 149.104043,13.0022267 152.387465,22.0233383 C155,30.2856887 155,37.9611916 155,53.3121937 L155,101.687806 C155,117.038812 155,124.714311 152.387465,132.976658 C149.104043,141.99778 141.99778,149.104043 132.976658,152.387465 C124.714311,155 117.038812,155 101.687806,155 L53.3121937,155 C37.9611916,155 30.2856887,155 22.0233465,152.387465 C13.0022323,149.104043 5.89595407,141.99778 2.61253585,132.976658 C0,124.714311 0,117.038812 0,101.687806 L0,53.3121937 C0,37.9611916 0,30.2856887 2.61253533,22.0233465 C5.89595303,13.0022303 13.0022323,5.89595097 22.0233481,2.61253482 C30.2856887,0 37.9611916,0 53.3121937,0 L53.3121937,0" id="Round-Rec" fill="url(#linearGradient-1)" sketch:type="MSShapeGroup"></path>
            <path d="M75.962,117.048 C73.0339854,117.942671 69.3536888,118.755996 64.921,119.488 C60.4883112,120.220004 55.8320244,120.586 50.952,120.586 C45.9093081,120.586 41.3953533,119.813341 37.41,118.268 C33.4246467,116.722659 30.029014,114.506348 27.223,111.619 C24.416986,108.731652 22.2616742,105.234354 20.757,101.127 C19.2523258,97.0196461 18.5,92.4040256 18.5,87.28 C18.5,82.2373081 19.130327,77.6623539 20.391,73.555 C21.651673,69.4476461 23.5019878,65.9300146 25.942,63.002 C28.3820122,60.0739854 31.3506492,57.8170079 34.848,56.231 C38.3453508,54.6449921 42.3713106,53.852 46.926,53.852 C50.0166821,53.852 52.7413215,54.2179963 55.1,54.95 C57.4586785,55.6820037 59.4919915,56.4953289 61.2,57.39 L61.2,26.768 L75.962,24.328 L75.962,117.048 Z M33.628,86.914 C33.628,93.4206992 35.1733179,98.5243148 38.264,102.225 C41.3546821,105.925685 45.6246394,107.776 51.074,107.776 C53.4326785,107.776 55.4456583,107.674334 57.113,107.471 C58.7803417,107.267666 60.1426614,107.044001 61.2,106.8 L61.2,70.2 C59.8986602,69.3053289 58.1703441,68.4716705 56.015,67.699 C53.8596559,66.9263295 51.5620122,66.54 49.122,66.54 C43.7539732,66.54 39.8296791,68.3699817 37.349,72.03 C34.8683209,75.6900183 33.628,80.651302 33.628,86.914 Z" id="d" fill="#FFFFFF" sketch:type="MSShapeGroup"></path>
            <path d="M79.9511875,57.268 C82.7978684,56.4546626 86.4984981,55.6820037 91.0531875,54.95 C95.6078769,54.2179963 100.650493,53.852 106.181188,53.852 C111.386547,53.852 115.737837,54.5636595 119.235187,55.987 C122.732538,57.4103404 125.518177,59.4029872 127.592187,61.965 C129.666198,64.5270128 131.130183,67.6176486 131.984188,71.237 C132.838192,74.8563514 133.265187,78.8213118 133.265187,83.132 L133.265187,119 L118.503187,119 L118.503187,85.45 C118.503187,82.0339829 118.279523,79.1263453 117.832188,76.727 C117.384852,74.3276547 116.652859,72.3756742 115.636188,70.871 C114.619516,69.3663258 113.236863,68.2683368 111.488188,67.577 C109.739512,66.8856632 107.604533,66.54 105.083188,66.54 C103.212511,66.54 101.260531,66.6619988 99.2271875,66.906 C97.193844,67.1500012 95.6891924,67.3533325 94.7131875,67.516 L94.7131875,119 L79.9511875,119 L79.9511875,57.268 Z" id="n" fill="#FFFFFF" sketch:type="MSShapeGroup"></path>
        </g>
    </g>
</svg>