<?xml version="1.0" encoding="UTF-8" standalone="no"?>
<svg width="47px" height="50px" viewBox="0 0 47 50" version="1.1" xmlns="http://www.w3.org/2000/svg" xmlns:xlink="http://www.w3.org/1999/xlink" xmlns:sketch="http://www.bohemiancoding.com/sketch/ns">
    <title>Slice 1</title>
    <description>Created with Sketch (http://www.bohemiancoding.com/sketch)</description>
    <defs></defs>
    <g id="Page-1" stroke="none" stroke-width="1" fill="none" fill-rule="evenodd" sketch:type="MSPage">
        <path d="M43,10.8762435 L43,33.4635944 C41.7401441,33.1091177 40.2604249,32.9415216 38.6774886,33.0183358 C34.0810922,33.2413823 30.6561095,36.1721745 31.0275752,39.5644438 C31.3990408,42.9567131 35.1251559,44.7944276 39.3500866,43.6690943 C43.5750173,42.5437609 47,39.6129687 47,37.1229862 C47,37.0818103 46.9989811,37.0408128 46.9969561,37 L46.9969561,37 L47,37 L47,5.47852455 L47,0 L12,7.88580929 L12,13 L12,39.4635896 L12,39.4635944 C10.7401441,39.1091177 9.26042488,38.9415216 7.67748855,39.0183358 C3.08109217,39.2413823 -0.343890511,42.1721745 0.0275751508,45.5644438 C0.399040813,48.9567131 4.12515588,50.7944276 8.3500866,49.6690943 C12.0870079,48.6737449 15.1981077,46.265935 15.8669582,44 L16,44 L16,17.0808056 L43,10.8762435 Z" id="Oval-1" fill="#FFFFFF" sketch:type="MSShapeGroup"></path>
    </g>
</svg>