<?xml version="1.0" encoding="UTF-8" standalone="no"?>
<svg width="50px" height="50px" viewBox="0 0 50 50" version="1.1" xmlns="http://www.w3.org/2000/svg" xmlns:xlink="http://www.w3.org/1999/xlink" xmlns:sketch="http://www.bohemiancoding.com/sketch/ns">
    <title>Slice 1</title>
    <description>Created with Sketch (http://www.bohemiancoding.com/sketch)</description>
    <defs></defs>
    <g id="Page-1" stroke="none" stroke-width="1" fill="none" fill-rule="evenodd" sketch:type="MSPage">
        <path d="M25,50 C38.8071194,50 50,38.8071194 50,25 C50,11.1928806 38.8071194,0 25,0 C11.1928806,0 0,11.1928806 0,25 C0,38.8071194 11.1928806,50 25,50 Z M25,47 C37.1502651,47 47,37.1502651 47,25 C47,12.8497349 37.1502651,3 25,3 C12.8497349,3 3,12.8497349 3,25 C3,37.1502651 12.8497349,47 25,47 Z" id="Oval-1" fill="#FFFFFF" sketch:type="MSShapeGroup"></path>
        <path d="M25,40 C33.2842717,40 40,33.2842717 40,25 C40,16.7157283 33.2842717,10 25,10 C16.7157283,10 10,16.7157283 10,25 C10,33.2842717 16.7157283,40 25,40 Z M25,37 C31.6274173,37 37,31.6274173 37,25 C37,18.3725827 31.6274173,13 25,13 C18.3725827,13 13,18.3725827 13,25 C13,31.6274173 18.3725827,37 25,37 Z" id="Oval-4" fill="#FFFFFF" sketch:type="MSShapeGroup"></path>
        <path d="M6.51736231,31.9939397 L6.51736231,42.3144725 L19.3948972,43.3217977 L19.3948975,31.9939397 L6.51736231,31.9939397 Z" id="Rectangle-2" fill="#FFFFFF" sketch:type="MSShapeGroup" transform="translate(13.017362, 37.493940) rotate(-135.000000) translate(-13.017362, -37.493940) "></path>
        <path d="M30.4826377,33.1152711 L30.4826377,42.9939397 L43.3601728,42.9939397 L43.3601726,31.8438545 L30.4826377,33.1152711 Z" id="Rectangle-2-copy" fill="#FFFFFF" sketch:type="MSShapeGroup" transform="translate(36.982638, 37.493940) rotate(-45.000000) translate(-36.982638, -37.493940) "></path>
        <path d="M5.95751143,6.96881345 L5.95751143,18.7579303 L18.8350463,16.557653 L18.8350466,6.96881345 L5.95751143,6.96881345 Z" id="Rectangle-2-copy" fill="#FFFFFF" sketch:type="MSShapeGroup" transform="translate(12.457511, 12.968813) rotate(-45.000000) translate(-12.457511, -12.968813) "></path>
        <path d="M31.396042,6.91803473 L31.396042,18.1152601 L44.2735771,18.1152601 L44.2735768,8.64498156 L31.396042,6.91803473 Z" id="Rectangle-2-copy-2" fill="#FFFFFF" sketch:type="MSShapeGroup" transform="translate(37.896042, 12.615260) rotate(-135.000000) translate(-37.896042, -12.615260) "></path>
    </g>
</svg>